{"title":"24 S09E08 SUB-ESP Subtitulado 1080p-McFly-H264.MP4","uid":10382249,"size":923410568,"categoryP":"video","categoryS":"hd___tv_shows","magnet":"?xt=urn:btih:5d67094c4ef094638a761a63b1f92f6f9ac86fa1&amp;dn=24+S09E08+SUB-ESP+Subtitulado+1080p-McFly-H264.MP4&amp;tr=udp%3A%2F%2Ftracker.openbittorrent.com%3A80&amp;tr=udp%3A%2F%2Fopen.demonii.com%3A1337&amp;tr=udp%3A%2F%2Ftracker.coppersurfer.tk%3A6969&amp;tr=udp%3A%2F%2Fexodus.desync.com%3A6969","seeders":1,"leechers":0,"uploader":"gunsnik","files":1,"time":1403052397,"description":"General\nUnique ID                                : 239017085064946281707673237759992450882 (0xB3D1042166E5634AAAE5023DD686CF42)\nComplete name                            : D:BAJADOS2424.S09E08.1080p.h264-McFLY.mkv\nFormat                                   : Matroska\nFormat version                           : Version 4 / Version 2\nFile size                                : 881 MiB\nDuration                                 : 42mn 52s\nOverall bit rate                         : 2 872 Kbps\nEncoded date                             : UTC 2014-06-18 03:49:53\nWriting application                      : mkvmerge v6.8.0 ('Theme for Great Cities') 64bit built on Mar  2 2014 21:34:26\nWriting library                          : libebml v1.3.0 + libmatroska v1.4.1\n\nVideo\nID                                       : 1\nFormat                                   : AVC\nFormat/Info                              : Advanced Video Codec\nFormat profile                           : &lt;a class=&quot;__cf_email__&quot; href=&quot;/cdn-cgi/l/email-protection&quot; data-cfemail=&quot;e6ae8f818ea6aad2c8d6&quot;&gt;[email&amp;#160;protected]&lt;/a&gt;&lt;script cf-hash='f9e31' type=&quot;text/javascript&quot;&gt;\n/* &lt;![CDATA[ */!function(){try{var t=&quot;currentScript&quot;in document?document.currentScript:function(){for(var t=document.getElementsByTagName(&quot;script&quot;),e=t.length;e--;)if(t[e].getAttribute(&quot;cf-hash&quot;))return t[e]}();if(t&amp;&amp;t.previousSibling){var e,r,n,i,c=t.previousSibling,a=c.getAttribute(&quot;data-cfemail&quot;);if(a){for(e=&quot;&quot;,r=parseInt(a.substr(0,2),16),n=2;a.length-n;n+=2)i=parseInt(a.substr(n,2),16)^r,e+=String.fromCharCode(i);e=document.createTextNode(e),c.parentNode.replaceChild(e,c)}}}catch(u){}}();/* ]]&gt; */&lt;/script&gt;\nFormat settings, CABAC                   : Yes\nFormat settings, ReFrames                : 4 frames\nCodec ID                                 : V_MPEG4/ISO/AVC\nDuration                                 : 42mn 52s\nBit rate                                 : 2 591 Kbps\nWidth                                    : 1 920 pixels\nHeight                                   : 1 080 pixels\nDisplay aspect ratio                     : 16:9\nFrame rate                               : 30.000 fps\nOriginal frame rate                      : 29.970 fps\nStandard                                 : Component\nColor space                              : YUV\nChroma subsampling                       : 4:2:0\nBit depth                                : 8 bits\nScan type                                : MBAFF\nBits/(Pixel*Frame)                       : 0.042\nStream size                              : 794 MiB (90%)\nDefault                                  : Yes\nForced                                   : No\nColor primaries                          : BT.709-5, BT.1361, IEC 61966-2-4, SMPTE RP177\nTransfer characteristics                 : BT.709-5, BT.1361\nMatrix coefficients                      : BT.709-5, BT.1361, IEC 61966-2-4 709, SMPTE RP177\n\nAudio\nID                                       : 2\nFormat                                   : MPEG Audio\nFormat version                           : Version 1\nFormat profile                           : Layer 3\nCodec ID                                 : A_MPEG/L3\nCodec ID/Hint                            : MP3\nDuration                                 : 42mn 52s\nBit rate mode                            : Constant\nBit rate                                 : 224 Kbps\nChannel(s)                               : 2 channels\nSampling rate                            : 48.0 KHz\nCompression mode                         : Lossy\nDelay relative to video                  : 4ms\nStream size                              : 68.7 MiB (8%)\nWriting library                          : LAME3.99.5UUUU\u0003\u0014\nDefault                                  : Yes\nForced                                   : No\n\n\nCapturas: &lt;a href=&quot;\nhttp://i39.servimg.com/u/f39/11/56/14/72/24_s0922.jpg&quot; rel=&quot;nofollow&quot; target=&quot;_NEW&quot;&gt;\nhttp://i39.servimg.com/u/f39/11/56/14/72/24_s0922.jpg&lt;/a&gt; &lt;a href=&quot;\nhttp://i39.servimg.com/u/f39/11/56/14/72/24_s0923.jpg&quot; rel=&quot;nofollow&quot; target=&quot;_NEW&quot;&gt;\nhttp://i39.servimg.com/u/f39/11/56/14/72/24_s0923.jpg&lt;/a&gt; &lt;a href=&quot;\nhttp://i39.servimg.com/u/f39/11/56/14/72/24_s0924.jpg&quot; rel=&quot;nofollow&quot; target=&quot;_NEW&quot;&gt;\nhttp://i39.servimg.com/u/f39/11/56/14/72/24_s0924.jpg&lt;/a&gt; &lt;a href=&quot;\nhttp://i39.servimg.com/u/f39/11/56/14/72/24_s0925.jpg&quot; rel=&quot;nofollow&quot; target=&quot;_NEW&quot;&gt;\nhttp://i39.servimg.com/u/f39/11/56/14/72/24_s0925.jpg&lt;/a&gt;","torrent":{"xt":"urn:btih:5d67094c4ef094638a761a63b1f92f6f9ac86fa1","amp;dn":"24+S09E08+SUB-ESP+Subtitulado+1080p-McFly-H264.MP4","amp;tr":["udp%3A%2F%2Ftracker.openbittorrent.com%3A80","udp%3A%2F%2Fopen.demonii.com%3A1337","udp%3A%2F%2Ftracker.coppersurfer.tk%3A6969","udp%3A%2F%2Fexodus.desync.com%3A6969"],"infoHash":"5d67094c4ef094638a761a63b1f92f6f9ac86fa1","infoHashBuffer":{"type":"Buffer","data":[93,103,9,76,78,240,148,99,138,118,26,99,177,249,47,111,154,200,111,161]},"announce":[],"urlList":[]}}